<svg id="visual" viewBox="0 0 900 600" width="900" height="600" xmlns="http://www.w3.org/2000/svg" xmlns:xlink="http://www.w3.org/1999/xlink" version="1.1"><rect x="0" y="0" width="900" height="600" fill="#fffffa"></rect><path d="M0 458L21.5 462.3C43 466.7 86 475.3 128.8 474.7C171.7 474 214.3 464 257.2 456.8C300 449.7 343 445.3 385.8 447.2C428.7 449 471.3 457 514.2 469.8C557 482.7 600 500.3 642.8 500C685.7 499.7 728.3 481.3 771.2 473.5C814 465.7 857 468.3 878.5 469.7L900 471L900 601L878.5 601C857 601 814 601 771.2 601C728.3 601 685.7 601 642.8 601C600 601 557 601 514.2 601C471.3 601 428.7 601 385.8 601C343 601 300 601 257.2 601C214.3 601 171.7 601 128.8 601C86 601 43 601 21.5 601L0 601Z" fill="#ffba4d"></path><path d="M0 545L21.5 537.3C43 529.7 86 514.3 128.8 509.3C171.7 504.3 214.3 509.7 257.2 506.8C300 504 343 493 385.8 491.7C428.7 490.3 471.3 498.7 514.2 499.5C557 500.3 600 493.7 642.8 495C685.7 496.3 728.3 505.7 771.2 508.8C814 512 857 509 878.5 507.5L900 506L900 601L878.5 601C857 601 814 601 771.2 601C728.3 601 685.7 601 642.8 601C600 601 557 601 514.2 601C471.3 601 428.7 601 385.8 601C343 601 300 601 257.2 601C214.3 601 171.7 601 128.8 601C86 601 43 601 21.5 601L0 601Z" fill="#b9597b"></path><path d="M0 555L21.5 558.2C43 561.3 86 567.7 128.8 567.3C171.7 567 214.3 560 257.2 551.8C300 543.7 343 534.3 385.8 534.3C428.7 534.3 471.3 543.7 514.2 552.8C557 562 600 571 642.8 574.2C685.7 577.3 728.3 574.7 771.2 575.3C814 576 857 580 878.5 582L900 584L900 601L878.5 601C857 601 814 601 771.2 601C728.3 601 685.7 601 642.8 601C600 601 557 601 514.2 601C471.3 601 428.7 601 385.8 601C343 601 300 601 257.2 601C214.3 601 171.7 601 128.8 601C86 601 43 601 21.5 601L0 601Z" fill="#24324f"></path></svg>