<svg id="visual" viewBox="0 0 3840 2160" width="3840" height="2160" xmlns="http://www.w3.org/2000/svg" xmlns:xlink="http://www.w3.org/1999/xlink" version="1.1"><rect x="0" y="0" width="3840" height="2160" fill="#fffffa"></rect><path d="M0 1387L91.5 1428.8C183 1470.7 366 1554.3 548.8 1562.3C731.7 1570.3 914.3 1502.7 1097.2 1512.2C1280 1521.7 1463 1608.3 1645.8 1574.5C1828.7 1540.7 2011.3 1386.3 2194.2 1364.8C2377 1343.3 2560 1454.7 2742.8 1494C2925.7 1533.3 3108.3 1500.7 3291.2 1461.7C3474 1422.7 3657 1377.3 3748.5 1354.7L3840 1332L3840 2161L3748.5 2161C3657 2161 3474 2161 3291.2 2161C3108.3 2161 2925.7 2161 2742.8 2161C2560 2161 2377 2161 2194.2 2161C2011.3 2161 1828.7 2161 1645.8 2161C1463 2161 1280 2161 1097.2 2161C914.3 2161 731.7 2161 548.8 2161C366 2161 183 2161 91.5 2161L0 2161Z" fill="#ffba4d"></path><path d="M0 1597L91.5 1595.8C183 1594.7 366 1592.3 548.8 1611.7C731.7 1631 914.3 1672 1097.2 1719.8C1280 1767.7 1463 1822.3 1645.8 1802.3C1828.7 1782.3 2011.3 1687.7 2194.2 1631.2C2377 1574.7 2560 1556.3 2742.8 1582.8C2925.7 1609.3 3108.3 1680.7 3291.2 1687.3C3474 1694 3657 1636 3748.5 1607L3840 1578L3840 2161L3748.5 2161C3657 2161 3474 2161 3291.2 2161C3108.3 2161 2925.7 2161 2742.8 2161C2560 2161 2377 2161 2194.2 2161C2011.3 2161 1828.7 2161 1645.8 2161C1463 2161 1280 2161 1097.2 2161C914.3 2161 731.7 2161 548.8 2161C366 2161 183 2161 91.5 2161L0 2161Z" fill="#b9597b"></path><path d="M0 2070L91.5 2067.7C183 2065.3 366 2060.7 548.8 2012.7C731.7 1964.7 914.3 1873.3 1097.2 1873.3C1280 1873.3 1463 1964.7 1645.8 1982.2C1828.7 1999.7 2011.3 1943.3 2194.2 1942.3C2377 1941.3 2560 1995.7 2742.8 1999.8C2925.7 2004 3108.3 1958 3291.2 1932.5C3474 1907 3657 1902 3748.5 1899.5L3840 1897L3840 2161L3748.5 2161C3657 2161 3474 2161 3291.2 2161C3108.3 2161 2925.7 2161 2742.8 2161C2560 2161 2377 2161 2194.2 2161C2011.3 2161 1828.7 2161 1645.8 2161C1463 2161 1280 2161 1097.2 2161C914.3 2161 731.7 2161 548.8 2161C366 2161 183 2161 91.5 2161L0 2161Z" fill="#24324f"></path></svg>