<svg id="visual" viewBox="0 0 1920 1080" width="1920" height="1080" xmlns="http://www.w3.org/2000/svg" xmlns:xlink="http://www.w3.org/1999/xlink" version="1.1"><rect x="0" y="0" width="1920" height="1080" fill="#fffffa"></rect><path d="M0 693L45.7 714C91.3 735 182.7 777 274.2 781C365.7 785 457.3 751 548.8 755.7C640.3 760.3 731.7 803.7 823 786.7C914.3 769.7 1005.7 692.3 1097 681.5C1188.3 670.7 1279.7 726.3 1371.2 746.2C1462.7 766 1554.3 750 1645.8 730.5C1737.3 711 1828.7 688 1874.3 676.5L1920 665L1920 1081L1874.3 1081C1828.7 1081 1737.3 1081 1645.8 1081C1554.3 1081 1462.7 1081 1371.2 1081C1279.7 1081 1188.3 1081 1097 1081C1005.7 1081 914.3 1081 823 1081C731.7 1081 640.3 1081 548.8 1081C457.3 1081 365.7 1081 274.2 1081C182.7 1081 91.3 1081 45.7 1081L0 1081Z" fill="#ffba4d"></path><path d="M0 798L45.7 797.5C91.3 797 182.7 796 274.2 805.7C365.7 815.3 457.3 835.7 548.8 859.5C640.3 883.3 731.7 910.7 823 900.7C914.3 890.7 1005.7 843.3 1097 815C1188.3 786.7 1279.7 777.3 1371.2 790.5C1462.7 803.7 1554.3 839.3 1645.8 842.7C1737.3 846 1828.7 817 1874.3 802.5L1920 788L1920 1081L1874.3 1081C1828.7 1081 1737.3 1081 1645.8 1081C1554.3 1081 1462.7 1081 1371.2 1081C1279.7 1081 1188.3 1081 1097 1081C1005.7 1081 914.3 1081 823 1081C731.7 1081 640.3 1081 548.8 1081C457.3 1081 365.7 1081 274.2 1081C182.7 1081 91.3 1081 45.7 1081L0 1081Z" fill="#b9597b"></path><path d="M0 1034L45.7 1033C91.3 1032 182.7 1030 274.2 1006C365.7 982 457.3 936 548.8 935.8C640.3 935.7 731.7 981.3 823 990.2C914.3 999 1005.7 971 1097 970.5C1188.3 970 1279.7 997 1371.2 999.2C1462.7 1001.3 1554.3 978.7 1645.8 966C1737.3 953.3 1828.7 950.7 1874.3 949.3L1920 948L1920 1081L1874.3 1081C1828.7 1081 1737.3 1081 1645.8 1081C1554.3 1081 1462.7 1081 1371.2 1081C1279.7 1081 1188.3 1081 1097 1081C1005.7 1081 914.3 1081 823 1081C731.7 1081 640.3 1081 548.8 1081C457.3 1081 365.7 1081 274.2 1081C182.7 1081 91.3 1081 45.7 1081L0 1081Z" fill="#24324f"></path></svg>